<svg xmlns="http://www.w3.org/2000/svg" viewBox="0 0 512 512">
  <defs>
    <linearGradient id="bg" x1="0%" y1="0%" x2="100%" y2="100%">
      <stop offset="0%" style="stop-color:#2563eb"/>
      <stop offset="100%" style="stop-color:#1d4ed8"/>
    </linearGradient>
  </defs>

  <!-- Background -->
  <rect width="512" height="512" rx="96" fill="url(#bg)"/>

  <!-- Microphone body -->
  <rect x="196" y="100" width="120" height="180" rx="60" fill="white"/>

  <!-- Microphone stand -->
  <path d="M256 300 v60 M206 360 h100" stroke="white" stroke-width="24" stroke-linecap="round" fill="none"/>

  <!-- Sound waves -->
  <path d="M140 190 Q120 190 120 210 Q120 250 140 290" stroke="white" stroke-width="16" stroke-linecap="round" fill="none" opacity="0.7"/>
  <path d="M100 170 Q70 170 70 210 Q70 270 100 310" stroke="white" stroke-width="16" stroke-linecap="round" fill="none" opacity="0.5"/>

  <path d="M372 190 Q392 190 392 210 Q392 250 372 290" stroke="white" stroke-width="16" stroke-linecap="round" fill="none" opacity="0.7"/>
  <path d="M412 170 Q442 170 442 210 Q442 270 412 310" stroke="white" stroke-width="16" stroke-linecap="round" fill="none" opacity="0.5"/>

  <!-- Text lines (transcription) -->
  <rect x="120" y="400" width="100" height="16" rx="8" fill="white" opacity="0.9"/>
  <rect x="240" y="400" width="150" height="16" rx="8" fill="white" opacity="0.7"/>
  <rect x="140" y="430" width="180" height="16" rx="8" fill="white" opacity="0.6"/>
  <rect x="340" y="430" width="50" height="16" rx="8" fill="white" opacity="0.5"/>
</svg>
