<svg xmlns="http://www.w3.org/2000/svg" width="512" height="512">
  <!-- Background -->
  <rect width="512" height="512" rx="110.08" fill="#ffffff"/>

  <!-- Border -->
  <rect x="9.984" y="9.984" width="492.032" height="492.032" rx="99.84" fill="none" stroke="#000000" stroke-width="3.9936"/>

  <!-- Phone outline -->
  <rect x="156.16" y="105.984" width="200.192" height="300.032" rx="19.968" fill="none" stroke="#000000" stroke-width="3.0208"/>

  <!-- Screen top notch -->
  <line x1="225.792" y1="105.984" x2="286.208" y2="105.984" stroke="#ffffff" stroke-width="3.9936"/>

  <!-- Face circle -->
  <circle cx="256" cy="200.192" r="50.176" fill="none" stroke="#000000" stroke-width="2.5088"/>

  <!-- Eyes -->
  <circle cx="236.032" cy="189.952" r="3.9936" fill="#000000"/>
  <circle cx="275.968" cy="189.952" r="3.9936" fill="#000000"/>

  <!-- Disappointed mouth -->
  <path d="M 236.032 220.16 Q 256 209.92 275.968 220.16" stroke="#000000" stroke-width="2.5088" fill="none" stroke-linecap="round"/>

  <!-- Chart bars -->
  <rect x="176.128" y="280.064" width="24.064" height="50.176" rx="3.0208" fill="#000000"/>
  <rect x="210.944" y="300.032" width="24.064" height="30.208" rx="3.0208" fill="#4a4a4a"/>
  <rect x="245.76" y="289.792" width="24.064" height="39.936" rx="3.0208" fill="#6b6b6b"/>
  <rect x="281.088" y="305.152" width="24.064" height="25.088" rx="3.0208" fill="#a0a0a0"/>

  <!-- Baseline -->
  <line x1="169.984" y1="330.24" x2="310.784" y2="330.24" stroke="#000000" stroke-width="1.4848" opacity="0.3"/>

  <!-- Gap arrow -->
  <path d="M 195.072 265.216 L 195.072 274.944 M 189.952 269.824 L 195.072 274.944 L 200.192 269.824" stroke="#000000" stroke-width="1.9968" fill="none" stroke-linecap="round" stroke-linejoin="round"/>
</svg>
    