<svg xmlns="http://www.w3.org/2000/svg" viewBox="0 0 512 512" width="512" height="512">
  <defs>
    <linearGradient id="grad1" x1="0%" y1="0%" x2="100%" y2="100%">
      <stop offset="0%" style="stop-color:#667eea;stop-opacity:1" />
      <stop offset="100%" style="stop-color:#764ba2;stop-opacity:1" />
    </linearGradient>
  </defs>

  <!-- Background -->
  <rect width="512" height="512" rx="110" fill="url(#grad1)"/>

  <!-- Phone/SNS Icon -->
  <rect x="156" y="106" width="200" height="300" rx="20" fill="white" opacity="0.95"/>

  <!-- Screen content - Sad/Disappointed face representing reality vs expectation -->
  <circle cx="256" cy="200" r="60" fill="none" stroke="#667eea" stroke-width="6"/>

  <!-- Eyes (disappointed) -->
  <line x1="236" y1="185" x2="246" y2="195" stroke="#667eea" stroke-width="6" stroke-linecap="round"/>
  <line x1="246" y1="185" x2="236" y2="195" stroke="#667eea" stroke-width="6" stroke-linecap="round"/>
  <line x1="266" y1="185" x2="276" y2="195" stroke="#667eea" stroke-width="6" stroke-linecap="round"/>
  <line x1="276" y1="185" x2="266" y2="195" stroke="#667eea" stroke-width="6" stroke-linecap="round"/>

  <!-- Mouth (disappointed/sad) -->
  <path d="M 226 225 Q 256 215 286 225" stroke="#667eea" stroke-width="6" fill="none" stroke-linecap="round"/>

  <!-- Chart bars below (representing data tracking) -->
  <rect x="176" y="280" width="30" height="70" rx="5" fill="#e74c3c" opacity="0.8"/>
  <rect x="221" y="300" width="30" height="50" rx="5" fill="#f39c12" opacity="0.8"/>
  <rect x="266" y="290" width="30" height="60" rx="5" fill="#3498db" opacity="0.8"/>
  <rect x="311" y="310" width="30" height="40" rx="5" fill="#2ecc71" opacity="0.8"/>

  <!-- Baseline for chart -->
  <line x1="166" y1="350" x2="351" y2="350" stroke="white" stroke-width="3" opacity="0.6"/>
</svg>
